<svg width="16" height="17" viewBox="0 0 16 17" fill="none" xmlns="http://www.w3.org/2000/svg">
<path d="M3.64062 16.5H0.371094V5.98828H3.64062V16.5ZM1.98828 4.58203C0.96875 4.58203 0.125 3.70312 0.125 2.64844C0.125 1.62891 0.96875 0.785156 1.98828 0.785156C3.04297 0.785156 3.88672 1.62891 3.88672 2.64844C3.88672 3.70312 3.04297 4.58203 1.98828 4.58203ZM15.8398 16.5H12.6055V11.4023C12.6055 10.1719 12.5703 8.625 10.8828 8.625C9.19531 8.625 8.94922 9.92578 8.94922 11.2969V16.5H5.67969V5.98828H8.80859V7.42969H8.84375C9.30078 6.62109 10.3555 5.74219 11.9375 5.74219C15.2422 5.74219 15.875 7.92188 15.875 10.7344V16.5H15.8398Z" fill="#292F36"/>
</svg>
